<svg xmlns="http://www.w3.org/2000/svg" style="display: none;">
  <symbol id="icon-eye-off" viewBox="0 0 32 32">
    <path stroke-linejoin="round" stroke-linecap="round" stroke-miterlimit="4" stroke-width="2.6667" d="M23.92 23.92c-2.279 1.737-5.055 2.7-7.92 2.747-9.333 0-14.667-10.667-14.667-10.667 1.659-3.091 3.959-5.791 6.747-7.92M13.2 5.653c0.918-0.215 1.857-0.322 2.8-0.32 9.333 0 14.667 10.667 14.667 10.667-0.809 1.514-1.775 2.94-2.88 4.253M18.827 18.827c-0.366 0.393-0.808 0.708-1.298 0.927s-1.020 0.336-1.557 0.346-1.071-0.089-1.569-0.291c-0.498-0.201-0.951-0.501-1.33-0.881s-0.679-0.832-0.88-1.33c-0.201-0.498-0.3-1.032-0.29-1.569s0.127-1.067 0.346-1.557c0.219-0.491 0.534-0.932 0.927-1.298"></path>
    <path stroke-linejoin="round" stroke-linecap="round" stroke-miterlimit="4" stroke-width="2.6667" d="M1.333 1.333l29.333 29.333"></path>
  </symbol>
  <symbol id="icon-eye-on" viewBox="0 0 32 32">
    <path stroke-linejoin="round" stroke-linecap="round" stroke-miterlimit="4" stroke-width="2.6667" d="M1.333 16c0 0 5.333-10.667 14.667-10.667s14.667 10.667 14.667 10.667c0 0-5.333 10.667-14.667 10.667s-14.667-10.667-14.667-10.667z"></path>
    <path stroke-linejoin="round" stroke-linecap="round" stroke-miterlimit="4" stroke-width="2.6667" d="M16 20c2.209 0 4-1.791 4-4s-1.791-4-4-4c-2.209 0-4 1.791-4 4s1.791 4 4 4z"></path>
  </symbol>
  <symbol id="icon-logout" viewBox="0 0 32 32">
    <path  d="M28.138 16.552c0 6.704-5.434 12.138-12.138 12.138s-12.138-5.434-12.138-12.138c0-6.704 5.434-12.138 12.138-12.138s12.138 5.434 12.138 12.138z"></path>
    <path fill="currentColor" d="M13.793 12.874c-0.293 0-0.573 0.116-0.78 0.323s-0.323 0.488-0.323 0.78v5.149c0 0.293 0.116 0.573 0.323 0.78s0.488 0.323 0.78 0.323h2.207c0.293 0 0.573-0.116 0.78-0.323s0.323-0.488 0.323-0.78v-5.149c0-0.293-0.116-0.573-0.323-0.78s-0.488-0.323-0.78-0.323h-2.207zM17.579 14.82c0.069-0.069 0.163-0.108 0.26-0.108s0.191 0.039 0.26 0.108l1.471 1.471c0.069 0.069 0.108 0.163 0.108 0.26s-0.039 0.191-0.108 0.26l-1.471 1.471c-0.069 0.067-0.162 0.104-0.259 0.103s-0.189-0.040-0.257-0.108-0.107-0.16-0.108-0.257c-0.001-0.096 0.036-0.189 0.103-0.259l0.843-0.843h-3.158c-0.098 0-0.191-0.039-0.26-0.108s-0.108-0.162-0.108-0.26c0-0.098 0.039-0.191 0.108-0.26s0.163-0.108 0.26-0.108h3.158l-0.843-0.843c-0.069-0.069-0.108-0.163-0.108-0.26s0.039-0.191 0.108-0.26z"></path>
  </symbol>
  <symbol id="icon-dashboard" viewBox="0 0 32 32">
    <path fill="#fff" style="fill: var(--color1, #fff)" d="M28.138 16.552c0 6.704-5.434 12.138-12.138 12.138s-12.138-5.434-12.138-12.138c0-6.704 5.434-12.138 12.138-12.138s12.138 5.434 12.138 12.138z"></path>
    <path d="M13.057 16.92h2.207c0.202 0 0.368-0.166 0.368-0.368v-2.942c0-0.202-0.166-0.368-0.368-0.368h-2.207c-0.202 0-0.368 0.166-0.368 0.368v2.942c0 0.202 0.166 0.368 0.368 0.368zM13.057 19.862h2.207c0.202 0 0.368-0.166 0.368-0.368v-1.471c0-0.202-0.166-0.368-0.368-0.368h-2.207c-0.202 0-0.368 0.166-0.368 0.368v1.471c0 0.202 0.166 0.368 0.368 0.368zM16.736 19.862h2.207c0.202 0 0.368-0.166 0.368-0.368v-2.942c0-0.202-0.166-0.368-0.368-0.368h-2.207c-0.202 0-0.368 0.166-0.368 0.368v2.942c0 0.202 0.166 0.368 0.368 0.368zM16.368 13.609v1.471c0 0.202 0.166 0.368 0.368 0.368h2.207c0.202 0 0.368-0.166 0.368-0.368v-1.471c0-0.202-0.166-0.368-0.368-0.368h-2.207c-0.202 0-0.368 0.166-0.368 0.368z"></path>
  </symbol>
  <symbol id="icon-orders" viewBox="0 0 32 32">
    <path fill="#fff" style="fill: var(--color1, #fff)" d="M28.138 16.552c0 6.704-5.434 12.138-12.138 12.138s-12.138-5.434-12.138-12.138c0-6.704 5.434-12.138 12.138-12.138s12.138 5.434 12.138 12.138z"></path>
    <path d="M14.161 18.759c-0.405 0-0.732 0.331-0.732 0.736s0.327 0.736 0.732 0.736 0.736-0.331 0.736-0.736c0-0.405-0.331-0.736-0.736-0.736zM11.954 13.241c0 0.202 0.166 0.368 0.368 0.368h0.368l1.324 2.792-0.497 0.898c-0.268 0.493 0.085 1.092 0.644 1.092h4.046c0.202 0 0.368-0.166 0.368-0.368s-0.166-0.368-0.368-0.368h-4.046l0.405-0.736h2.74c0.276 0 0.519-0.151 0.644-0.379l1.317-2.387c0.031-0.056 0.047-0.119 0.046-0.182s-0.018-0.126-0.051-0.181-0.078-0.101-0.134-0.132c-0.055-0.032-0.118-0.048-0.182-0.048h-5.444l-0.246-0.526c-0.030-0.063-0.076-0.116-0.135-0.153s-0.127-0.057-0.196-0.057h-0.603c-0.202 0-0.368 0.166-0.368 0.368zM17.839 18.759c-0.405 0-0.732 0.331-0.732 0.736s0.327 0.736 0.732 0.736c0.405 0 0.736-0.331 0.736-0.736s-0.331-0.736-0.736-0.736z"></path>
  </symbol>
  <symbol id="icon-products" viewBox="0 0 32 32">
    <path fill="#fff" style="fill: var(--color1, #fff)" d="M28.138 16.552c0 6.704-5.434 12.138-12.138 12.138s-12.138-5.434-12.138-12.138c0-6.704 5.434-12.138 12.138-12.138s12.138 5.434 12.138 12.138z"></path>
    <path d="M17.103 15.68v-2.071h0.368c0.098 0 0.191-0.039 0.26-0.108s0.108-0.162 0.108-0.26c0-0.098-0.039-0.191-0.108-0.26s-0.163-0.108-0.26-0.108h-2.942c-0.098 0-0.191 0.039-0.26 0.108s-0.108 0.163-0.108 0.26c0 0.098 0.039 0.191 0.108 0.26s0.163 0.108 0.26 0.108h0.368v2.071l-1.923 2.825c-0.498 0.733 0.026 1.724 0.912 1.724h4.227c0.886 0 1.411-0.992 0.912-1.724l-1.922-2.825z"></path>
  </symbol>
  <symbol id="icon-customers" viewBox="0 0 32 32">
    <path fill="#fff" style="fill: var(--color1, #fff)" d="M28.138 16.552c0 6.704-5.434 12.138-12.138 12.138s-12.138-5.434-12.138-12.138c0-6.704 5.434-12.138 12.138-12.138s12.138 5.434 12.138 12.138z"></path>
    <path d="M17.471 18.391v0.736h-5.149v-0.736c0 0 0-1.471 2.575-1.471s2.575 1.471 2.575 1.471zM16.184 14.897c0-0.255-0.076-0.504-0.217-0.715s-0.342-0.377-0.578-0.474-0.494-0.123-0.744-0.073c-0.25 0.050-0.479 0.172-0.659 0.352s-0.303 0.409-0.352 0.659c-0.050 0.25-0.024 0.509 0.073 0.744s0.262 0.436 0.474 0.578 0.461 0.217 0.715 0.217c0.341 0 0.669-0.136 0.91-0.377s0.377-0.569 0.377-0.91zM17.449 16.92c0.226 0.175 0.411 0.397 0.542 0.652s0.205 0.534 0.216 0.82v0.736h1.471v-0.736c0 0 0-1.335-2.229-1.471zM17.104 13.609c-0.253-0.001-0.501 0.074-0.71 0.217 0.223 0.312 0.344 0.686 0.344 1.070s-0.12 0.758-0.344 1.070c0.209 0.143 0.457 0.218 0.71 0.217 0.341 0 0.669-0.136 0.91-0.377s0.377-0.569 0.377-0.91c0-0.341-0.136-0.669-0.377-0.91s-0.569-0.377-0.91-0.377z"></path>
  </symbol>
  <symbol id="icon-suppliers" viewBox="0 0 32 32">
    <path fill="#fff" style="fill: var(--color1, #fff)" d="M28.138 16.552c0 6.704-5.434 12.138-12.138 12.138s-12.138-5.434-12.138-12.138c0-6.704 5.434-12.138 12.138-12.138s12.138 5.434 12.138 12.138z"></path>
    <path d="M17.471 17.287h-1.103v1.103h-0.736v-1.103h-1.103v-0.736h1.103v-1.103h0.736v1.103h1.103zM19.31 13.977h-0.975l0.423-1.159-0.864-0.313-0.537 1.471h-4.668v0.736l0.736 2.207-0.736 2.207v0.736h6.621v-0.736l-0.736-2.207 0.736-2.207v-0.736z"></path>
  </symbol>
  <symbol id="icon-burger" viewBox="0 0 32 32">
    <path stroke-linejoin="round" stroke-linecap="round" stroke-miterlimit="4" stroke-width="2" d="M4 8.001h24M4 16.001h24M4 24.001h24"></path>
  </symbol>
  <symbol id="icon-cross" viewBox="0 0 32 32">
    <path stroke-linejoin="round" stroke-linecap="round" stroke-miterlimit="4" stroke-width="2" d="M24 8l-16 16"></path>
    <path stroke-linejoin="round" stroke-linecap="round" stroke-miterlimit="4" stroke-width="2" d="M8 8l16 16"></path>
  </symbol>
  <symbol id="icon-coins" viewBox="0 0 32 32">
    <path stroke-linejoin="round" stroke-linecap="round" stroke-miterlimit="4" stroke-width="2.4" d="M10.286 12.572v13.714c0 2.514 4.571 4.571 10.286 4.571s10.286-2.057 10.286-4.571v-13.714"></path>
    <path stroke-linejoin="round" stroke-linecap="round" stroke-miterlimit="4" stroke-width="2.4" d="M20.572 17.143c5.681 0 10.286-2.047 10.286-4.571s-4.605-4.571-10.286-4.571c-5.681 0-10.286 2.047-10.286 4.571s4.605 4.571 10.286 4.571z"></path>
    <path stroke-linejoin="round" stroke-linecap="round" stroke-miterlimit="4" stroke-width="2.4" d="M30.857 19.429c0 2.514-4.572 4.571-10.286 4.571s-10.286-2.057-10.286-4.571M20.343 3.429c-2.671-1.648-5.78-2.445-8.914-2.286-5.691 0-10.286 2.057-10.286 4.571 0 1.349 1.326 2.56 3.429 3.429"></path>
    <path stroke-linejoin="round" stroke-linecap="round" stroke-miterlimit="4" stroke-width="2.4" d="M4.572 22.857c-2.103-0.869-3.429-2.080-3.429-3.429v-13.714"></path>
    <path stroke-linejoin="round" stroke-linecap="round" stroke-miterlimit="4" stroke-width="2.4" d="M4.572 16c-2.103-0.869-3.429-2.080-3.429-3.428"></path>
  </symbol>
  <symbol id="icon-users" viewBox="0 0 32 32">
    <path stroke-linejoin="round" stroke-linecap="round" stroke-miterlimit="4" stroke-width="2.4" d="M28 26.667c0-2.323-2.227-4.297-5.333-5.031M20 26.667c0-2.947-3.581-5.333-8-5.333s-8 2.387-8 5.333M20 17.333c1.415 0 2.771-0.562 3.771-1.562s1.562-2.357 1.562-3.771c0-1.415-0.562-2.771-1.562-3.771s-2.357-1.562-3.771-1.562M12 17.333c-1.415 0-2.771-0.562-3.771-1.562s-1.562-2.357-1.562-3.771c0-1.415 0.562-2.771 1.562-3.771s2.357-1.562 3.771-1.562c1.414 0 2.771 0.562 3.771 1.562s1.562 2.357 1.562 3.771-0.562 2.771-1.562 3.771c-1 1-2.357 1.562-3.771 1.562z"></path>
  </symbol>
</svg>
